# xmcd
#
# Track frame offsets:
#	150
#	6280
#	25467
#	50064
#	74692
#	100096
#	154546
#	182327
#	190178
#	234230
#
# Disc length: 3329 seconds
#
# Revision: 0
# Processed by: cddbd v1.5.2PL0 Copyright (c) Steve Scherf et al.
# Submitted via: EasyCDDAExtractor 11.0.0.1
#
DISCID=7b0cff0a
DTITLE=KZ KOSZALIN - Bede isc za Nim
DYEAR=1900
DGENRE=
TTITLE0=Wstep
TTITLE1=Skosztuj
TTITLE2=Na przekor swiatu
TTITLE3=Zwyciestwo jest w Chrystusie
TTITLE4=Jezus droga
TTITLE5=Nie zniecheca
TTITLE6=Kiedy przychodzisz
TTITLE7=Swiadectwo
TTITLE8=Bede isc za Nim
TTITLE9=Nie ma innego Boga
EXTD=
EXTT0=
EXTT1=
EXTT2=
EXTT3=
EXTT4=
EXTT5=
EXTT6=
EXTT7=
EXTT8=
EXTT9=
PLAYORDER=
